<svg width="81" height="81" viewBox="0 0 81 81" fill="none" xmlns="http://www.w3.org/2000/svg">
<g clip-path="url(#clip0_104_1565)">
<path d="M40.5 0.0917969C18.4431 0.0917969 0.5 18.0349 0.5 40.0918C0.5 62.1487 18.4431 80.0918 40.5 80.0918C62.5569 80.0918 80.5 62.1487 80.5 40.0918C80.5 18.0349 62.5569 0.0917969 40.5 0.0917969Z" fill="#00A9CB" fill-opacity="0.1"/>
<path d="M60.7729 31.6147L39.1061 53.281C38.4561 53.931 37.6028 54.2582 36.7495 54.2582C35.8962 54.2582 35.043 53.931 34.3929 53.281L23.5598 42.4479C22.2561 41.1448 22.2561 39.0378 23.5598 37.7347C24.8629 36.431 26.9692 36.431 28.2729 37.7347L36.7495 46.2113L56.0598 26.9016C57.3629 25.5979 59.4692 25.5979 60.7729 26.9016C62.076 28.2047 62.076 30.311 60.7729 31.6147Z" fill="#00A9CB"/>
</g>
<defs>
<clipPath id="clip0_104_1565">
<rect width="80" height="80" fill="white" transform="translate(0.5 0.0917969)"/>
</clipPath>
</defs>
</svg>
