<svg width="11" height="12" viewBox="0 0 11 12" fill="none" xmlns="http://www.w3.org/2000/svg">
<path d="M9.62493 3.36499C9.61576 3.36499 9.60201 3.36499 9.58826 3.36499C7.16368 3.09999 4.74368 2.99999 2.3466 3.26499L1.4116 3.36499C1.2191 3.38499 1.04951 3.23499 1.03118 3.02499C1.01285 2.81499 1.15035 2.63499 1.33826 2.61499L2.27326 2.51499C4.7116 2.24499 7.18201 2.34999 9.65701 2.61499C9.84493 2.63499 9.98243 2.81999 9.9641 3.02499C9.95035 3.21999 9.7991 3.36499 9.62493 3.36499Z" fill="#FC001E"/>
<path d="M3.89585 2.86C3.87751 2.86 3.85918 2.86 3.83626 2.855C3.65293 2.82 3.5246 2.625 3.55668 2.425L3.65751 1.77C3.73085 1.29 3.83168 0.625 4.8996 0.625H6.10043C7.17293 0.625 7.27376 1.315 7.34251 1.775L7.44335 2.425C7.47543 2.63 7.3471 2.825 7.16376 2.855C6.97585 2.89 6.7971 2.75 6.7696 2.55L6.66876 1.9C6.6046 1.465 6.59085 1.38 6.10501 1.38H4.90418C4.41835 1.38 4.40918 1.45 4.34043 1.895L4.23501 2.545C4.20751 2.73 4.06085 2.86 3.89585 2.86Z" fill="#FC001E"/>
<path d="M6.9711 11.375H4.0286C2.42902 11.375 2.36485 10.41 2.31444 9.63004L2.01652 4.59504C2.00277 4.39004 2.14944 4.21004 2.33735 4.19504C2.52985 4.18504 2.69027 4.34004 2.70402 4.54504L3.00194 9.58004C3.05235 10.34 3.07069 10.625 4.0286 10.625H6.9711C7.9336 10.625 7.95194 10.34 7.99777 9.58004L8.29569 4.54504C8.30944 4.34004 8.47444 4.18504 8.66235 4.19504C8.85027 4.21004 8.99694 4.38504 8.98319 4.59504L8.68527 9.63004C8.63485 10.41 8.57069 11.375 6.9711 11.375Z" fill="#FC001E"/>
<path d="M6.26087 8.625H4.73462C4.5467 8.625 4.39087 8.455 4.39087 8.25C4.39087 8.045 4.5467 7.875 4.73462 7.875H6.26087C6.44879 7.875 6.60462 8.045 6.60462 8.25C6.60462 8.455 6.44879 8.625 6.26087 8.625Z" fill="#FC001E"/>
<path d="M6.64591 6.625H4.35425C4.16633 6.625 4.0105 6.455 4.0105 6.25C4.0105 6.045 4.16633 5.875 4.35425 5.875H6.64591C6.83383 5.875 6.98966 6.045 6.98966 6.25C6.98966 6.455 6.83383 6.625 6.64591 6.625Z" fill="#FC001E"/>
</svg>
