<svg width="19" height="18" viewBox="0 0 19 18" fill="none" xmlns="http://www.w3.org/2000/svg">
<path d="M6.33337 4.3125C6.00879 4.3125 5.73962 4.0575 5.73962 3.75V1.5C5.73962 1.1925 6.00879 0.9375 6.33337 0.9375C6.65796 0.9375 6.92712 1.1925 6.92712 1.5V3.75C6.92712 4.0575 6.65796 4.3125 6.33337 4.3125Z" fill="#292D32"/>
<path d="M12.6666 4.3125C12.342 4.3125 12.0729 4.0575 12.0729 3.75V1.5C12.0729 1.1925 12.342 0.9375 12.6666 0.9375C12.9912 0.9375 13.2604 1.1925 13.2604 1.5V3.75C13.2604 4.0575 12.9912 4.3125 12.6666 4.3125Z" fill="#292D32"/>
<path d="M6.72917 10.875C6.62625 10.875 6.52333 10.8525 6.42833 10.815C6.32542 10.7775 6.24625 10.725 6.16708 10.6575C6.02458 10.515 5.9375 10.3275 5.9375 10.125C5.9375 10.0275 5.96125 9.92999 6.00083 9.83999C6.04042 9.74999 6.09583 9.6675 6.16708 9.5925C6.24625 9.525 6.32542 9.47248 6.42833 9.43498C6.71333 9.32248 7.06958 9.3825 7.29125 9.5925C7.43375 9.735 7.52083 9.92999 7.52083 10.125C7.52083 10.17 7.51292 10.2225 7.505 10.275C7.49708 10.32 7.48125 10.365 7.4575 10.41C7.44167 10.455 7.41792 10.5 7.38625 10.545C7.3625 10.5825 7.32292 10.62 7.29125 10.6575C7.14083 10.7925 6.935 10.875 6.72917 10.875Z" fill="#292D32"/>
<path d="M9.50004 10.875C9.39712 10.875 9.29421 10.8525 9.19921 10.815C9.09629 10.7775 9.01712 10.725 8.93796 10.6575C8.79546 10.515 8.70837 10.3275 8.70837 10.125C8.70837 10.0275 8.73213 9.93002 8.77171 9.84002C8.81129 9.75002 8.86671 9.66753 8.93796 9.59253C9.01712 9.52503 9.09629 9.47252 9.19921 9.43502C9.48421 9.31502 9.84046 9.38253 10.0621 9.59253C10.2046 9.73503 10.2917 9.93003 10.2917 10.125C10.2917 10.17 10.2838 10.2225 10.2759 10.275C10.268 10.32 10.2521 10.365 10.2284 10.41C10.2125 10.455 10.1888 10.5 10.1571 10.545C10.1334 10.5825 10.0938 10.62 10.0621 10.6575C9.91171 10.7925 9.70587 10.875 9.50004 10.875Z" fill="#292D32"/>
<path d="M12.2708 10.875C12.1679 10.875 12.065 10.8525 11.97 10.815C11.867 10.7775 11.7879 10.725 11.7087 10.6575C11.677 10.62 11.6454 10.5825 11.6137 10.545C11.582 10.5 11.5583 10.455 11.5425 10.41C11.5187 10.365 11.5029 10.32 11.495 10.275C11.487 10.2225 11.4791 10.17 11.4791 10.125C11.4791 9.93003 11.5662 9.73503 11.7087 9.59253C11.7879 9.52503 11.867 9.47252 11.97 9.43502C12.2629 9.31502 12.6112 9.38253 12.8329 9.59253C12.9754 9.73503 13.0625 9.93003 13.0625 10.125C13.0625 10.17 13.0545 10.2225 13.0466 10.275C13.0387 10.32 13.0229 10.365 12.9991 10.41C12.9833 10.455 12.9595 10.5 12.9279 10.545C12.9041 10.5825 12.8645 10.62 12.8329 10.6575C12.6825 10.7925 12.4766 10.875 12.2708 10.875Z" fill="#292D32"/>
<path d="M6.72917 13.5C6.62625 13.5 6.52333 13.4775 6.42833 13.44C6.33333 13.4025 6.24625 13.35 6.16708 13.2825C6.02458 13.14 5.9375 12.945 5.9375 12.75C5.9375 12.6525 5.96125 12.555 6.00083 12.465C6.04042 12.3675 6.09583 12.285 6.16708 12.2175C6.46 11.94 6.99833 11.94 7.29125 12.2175C7.43375 12.36 7.52083 12.555 7.52083 12.75C7.52083 12.945 7.43375 13.14 7.29125 13.2825C7.14083 13.4175 6.935 13.5 6.72917 13.5Z" fill="#292D32"/>
<path d="M9.50004 13.5C9.29421 13.5 9.08837 13.4175 8.93796 13.2825C8.79546 13.14 8.70837 12.945 8.70837 12.75C8.70837 12.6525 8.73213 12.555 8.77171 12.465C8.81129 12.3675 8.86671 12.285 8.93796 12.2175C9.23087 11.94 9.76921 11.94 10.0621 12.2175C10.1334 12.285 10.1888 12.3675 10.2284 12.465C10.268 12.555 10.2917 12.6525 10.2917 12.75C10.2917 12.945 10.2046 13.14 10.0621 13.2825C9.91171 13.4175 9.70587 13.5 9.50004 13.5Z" fill="#292D32"/>
<path d="M12.2708 13.5001C12.065 13.5001 11.8591 13.4176 11.7087 13.2826C11.6375 13.2151 11.582 13.1326 11.5425 13.0351C11.5029 12.9451 11.4791 12.8476 11.4791 12.7501C11.4791 12.6526 11.5029 12.5551 11.5425 12.4651C11.582 12.3676 11.6375 12.2851 11.7087 12.2176C11.8908 12.0451 12.1679 11.9625 12.4212 12.015C12.4766 12.0225 12.5241 12.0375 12.5716 12.06C12.6191 12.075 12.6666 12.0976 12.7141 12.1276C12.7537 12.1501 12.7933 12.1876 12.8329 12.2176C12.9754 12.3601 13.0625 12.5551 13.0625 12.7501C13.0625 12.9451 12.9754 13.1401 12.8329 13.2826C12.6825 13.4176 12.4766 13.5001 12.2708 13.5001Z" fill="#292D32"/>
<path d="M16.2292 7.38H2.77087C2.44629 7.38 2.17712 7.125 2.17712 6.8175C2.17712 6.51 2.44629 6.255 2.77087 6.255H16.2292C16.5538 6.255 16.823 6.51 16.823 6.8175C16.823 7.125 16.5538 7.38 16.2292 7.38Z" fill="#292D32"/>
<path d="M12.6667 17.0625H6.33333C3.44375 17.0625 1.78125 15.4875 1.78125 12.75V6.375C1.78125 3.6375 3.44375 2.0625 6.33333 2.0625H12.6667C15.5563 2.0625 17.2188 3.6375 17.2188 6.375V12.75C17.2188 15.4875 15.5563 17.0625 12.6667 17.0625ZM6.33333 3.1875C4.06917 3.1875 2.96875 4.23 2.96875 6.375V12.75C2.96875 14.895 4.06917 15.9375 6.33333 15.9375H12.6667C14.9308 15.9375 16.0312 14.895 16.0312 12.75V6.375C16.0312 4.23 14.9308 3.1875 12.6667 3.1875H6.33333Z" fill="#292D32"/>
</svg>
