<svg width="48" height="48" viewBox="0 0 48 48" fill="none" xmlns="http://www.w3.org/2000/svg">
<circle cx="24" cy="24" r="24" fill="url(#paint0_linear_2523_3087)"/>
<path d="M28 34.75H15C14.04 34.75 13.25 33.96 13.25 33V20C13.25 15.58 15.58 13.25 20 13.25H28C32.42 13.25 34.75 15.58 34.75 20V28C34.75 32.42 32.42 34.75 28 34.75ZM20 14.75C16.42 14.75 14.75 16.42 14.75 20V33C14.75 33.14 14.86 33.25 15 33.25H28C31.58 33.25 33.25 31.58 33.25 28V20C33.25 16.42 31.58 14.75 28 14.75H20Z" fill="white"/>
<path d="M19.9497 29.7501C19.4797 29.7501 19.0497 29.5801 18.7297 29.2701C18.3497 28.8901 18.1797 28.3501 18.2697 27.7701L18.5497 25.7901C18.6097 25.3601 18.8797 24.8101 19.1897 24.5001L24.3797 19.3101C26.1597 17.5301 27.7097 18.3301 28.6897 19.3101C29.4597 20.0801 29.8097 20.8901 29.7297 21.7001C29.6697 22.3601 29.3197 22.9801 28.6897 23.6201L23.4997 28.8101C23.1897 29.1201 22.6497 29.3901 22.2097 29.4601L20.2297 29.7401C20.1397 29.7401 20.0397 29.7501 19.9497 29.7501ZM26.5297 19.7501C26.1597 19.7501 25.8297 19.9901 25.4497 20.3601L20.2597 25.5501C20.1797 25.6301 20.0597 25.8801 20.0397 25.9901L19.7597 27.9701C19.7497 28.0701 19.7597 28.1601 19.7997 28.2001C19.8397 28.2401 19.9297 28.2501 20.0297 28.2401L22.0097 27.9601C22.1297 27.9401 22.3697 27.8201 22.4497 27.7401L27.6397 22.5501C28.0197 22.1701 28.2197 21.8401 28.2497 21.5401C28.2797 21.2001 28.0797 20.8001 27.6397 20.3601C27.1997 19.9401 26.8497 19.7501 26.5297 19.7501Z" fill="white"/>
<path d="M27.4198 24.58C27.3498 24.58 27.2798 24.57 27.2198 24.55C25.4098 24.04 23.9598 22.6 23.4498 20.78C23.3398 20.38 23.5698 19.97 23.9698 19.85C24.3698 19.74 24.7798 19.97 24.8898 20.37C25.2598 21.68 26.3098 22.73 27.6198 23.1C28.0198 23.21 28.2498 23.63 28.1398 24.03C28.0498 24.36 27.7498 24.58 27.4198 24.58Z" fill="white"/>
<defs>
<linearGradient id="paint0_linear_2523_3087" x1="48" y1="0" x2="0" y2="0" gradientUnits="userSpaceOnUse">
<stop stop-color="#008FAC"/>
<stop offset="1" stop-color="#00A9CB"/>
</linearGradient>
</defs>
</svg>
