<svg width="59" height="59" viewBox="0 0 59 59" fill="none" xmlns="http://www.w3.org/2000/svg">
<path opacity="0.5" d="M54.0833 24.5832H4.91663V46.7082C4.91663 48.6641 5.69363 50.54 7.07671 51.9231C8.45979 53.3062 10.3357 54.0832 12.2916 54.0832H46.7083C48.6643 54.0832 50.5401 53.3062 51.9232 51.9231C53.3063 50.54 54.0833 48.6641 54.0833 46.7082V24.5832ZM17.2083 19.6665C16.5563 19.6665 15.931 19.4075 15.47 18.9465C15.009 18.4854 14.75 17.8602 14.75 17.2082V7.37484C14.75 6.72285 15.009 6.09756 15.47 5.63653C15.931 5.17551 16.5563 4.9165 17.2083 4.9165C17.8603 4.9165 18.4856 5.17551 18.9466 5.63653C19.4076 6.09756 19.6666 6.72285 19.6666 7.37484V17.2082C19.6666 17.8602 19.4076 18.4854 18.9466 18.9465C18.4856 19.4075 17.8603 19.6665 17.2083 19.6665ZM41.7916 19.6665C41.1396 19.6665 40.5144 19.4075 40.0533 18.9465C39.5923 18.4854 39.3333 17.8602 39.3333 17.2082V7.37484C39.3333 6.72285 39.5923 6.09756 40.0533 5.63653C40.5144 5.17551 41.1396 4.9165 41.7916 4.9165C42.4436 4.9165 43.0689 5.17551 43.5299 5.63653C43.991 6.09756 44.25 6.72285 44.25 7.37484V17.2082C44.25 17.8602 43.991 18.4854 43.5299 18.9465C43.0689 19.4075 42.4436 19.6665 41.7916 19.6665Z" fill="#00A9CB"/>
<path d="M46.7083 9.8335H44.25V17.2085C44.25 17.8605 43.991 18.4858 43.5299 18.9468C43.0689 19.4078 42.4436 19.6668 41.7916 19.6668C41.1396 19.6668 40.5144 19.4078 40.0533 18.9468C39.5923 18.4858 39.3333 17.8605 39.3333 17.2085V9.8335H19.6666V17.2085C19.6666 17.8605 19.4076 18.4858 18.9466 18.9468C18.4856 19.4078 17.8603 19.6668 17.2083 19.6668C16.5563 19.6668 15.931 19.4078 15.47 18.9468C15.009 18.4858 14.75 17.8605 14.75 17.2085V9.8335H12.2916C10.3357 9.8335 8.45979 10.6105 7.07671 11.9936C5.69363 13.3767 4.91663 15.2525 4.91663 17.2085V24.5835H54.0833V17.2085C54.0833 15.2525 53.3063 13.3767 51.9232 11.9936C50.5401 10.6105 48.6643 9.8335 46.7083 9.8335Z" fill="#00A9CB"/>
<path d="M22.5362 47V45.7358L25.1889 43.4134C25.3878 43.2334 25.5571 43.0689 25.6967 42.9197C25.8364 42.7682 25.9429 42.6167 26.0163 42.4652C26.0897 42.3113 26.1264 42.1444 26.1264 41.9645C26.1264 41.7633 26.0826 41.5916 25.995 41.4496C25.9074 41.3052 25.7867 41.1939 25.6328 41.1158C25.4789 41.0376 25.3026 40.9986 25.1037 40.9986C24.9025 40.9986 24.7261 41.04 24.5746 41.1229C24.4231 41.2034 24.3047 41.3205 24.2195 41.4744C24.1366 41.6283 24.0952 41.8153 24.0952 42.0355H22.4297C22.4297 41.5407 22.541 41.1134 22.7635 40.7536C22.986 40.3937 23.2985 40.1167 23.701 39.9226C24.1058 39.7261 24.5758 39.6278 25.1108 39.6278C25.6624 39.6278 26.1418 39.7202 26.549 39.9048C26.9562 40.0895 27.2711 40.3475 27.4936 40.679C27.7185 41.008 27.831 41.3904 27.831 41.826C27.831 42.103 27.7753 42.3776 27.6641 42.6499C27.5528 42.9221 27.3527 43.2228 27.0639 43.5518C26.7775 43.8809 26.3703 44.2751 25.8423 44.7344L24.9723 45.5369V45.5831H27.9197V47H22.5362ZM28.6681 45.7926V44.4219L31.6475 39.7273H32.8656V41.5881H32.1589L30.4153 44.3509V44.4077H34.7299V45.7926H28.6681ZM32.1802 47V45.3736L32.2157 44.7734V39.7273H33.8599V47H32.1802Z" fill="#FFFAFA"/>
<path d="M25.1563 31C25.1563 31.8802 24.987 32.6263 24.6484 33.2383C24.3099 33.8503 23.8516 34.3151 23.2734 34.6328C22.6979 34.9505 22.0521 35.1094 21.3359 35.1094C20.6172 35.1094 19.9701 34.9492 19.3945 34.6289C18.819 34.3086 18.362 33.8437 18.0234 33.2344C17.6875 32.6224 17.5195 31.8776 17.5195 31C17.5195 30.1198 17.6875 29.3737 18.0234 28.7617C18.362 28.1497 18.819 27.6849 19.3945 27.3672C19.9701 27.0495 20.6172 26.8906 21.3359 26.8906C22.0521 26.8906 22.6979 27.0495 23.2734 27.3672C23.8516 27.6849 24.3099 28.1497 24.6484 28.7617C24.987 29.3737 25.1563 30.1198 25.1563 31ZM23.1797 31C23.1797 30.4792 23.1055 30.0391 22.957 29.6797C22.8112 29.3203 22.6003 29.0482 22.3242 28.8633C22.0508 28.6784 21.7214 28.5859 21.3359 28.5859C20.9531 28.5859 20.6237 28.6784 20.3477 28.8633C20.0716 29.0482 19.8594 29.3203 19.7109 29.6797C19.5651 30.0391 19.4922 30.4792 19.4922 31C19.4922 31.5208 19.5651 31.9609 19.7109 32.3203C19.8594 32.6797 20.0716 32.9518 20.3477 33.1367C20.6237 33.3216 20.9531 33.4141 21.3359 33.4141C21.7214 33.4141 22.0508 33.3216 22.3242 33.1367C22.6003 32.9518 22.8112 32.6797 22.957 32.3203C23.1055 31.9609 23.1797 31.5208 23.1797 31ZM33.5469 29.8984H31.5938C31.5677 29.6979 31.5143 29.5169 31.4336 29.3555C31.3529 29.194 31.2461 29.056 31.1133 28.9414C30.9805 28.8268 30.8229 28.7396 30.6406 28.6797C30.4609 28.6172 30.2617 28.5859 30.043 28.5859C29.6549 28.5859 29.3203 28.681 29.0391 28.8711C28.7604 29.0612 28.5456 29.3359 28.3945 29.6953C28.2461 30.0547 28.1719 30.4896 28.1719 31C28.1719 31.5312 28.2474 31.9766 28.3984 32.3359C28.5521 32.6927 28.7669 32.9622 29.043 33.1445C29.3216 33.3242 29.651 33.4141 30.0313 33.4141C30.2448 33.4141 30.4388 33.3867 30.6133 33.332C30.7904 33.2773 30.9453 33.1979 31.0781 33.0938C31.2135 32.987 31.3242 32.8581 31.4102 32.707C31.4987 32.5534 31.5599 32.3802 31.5938 32.1875L33.5469 32.1992C33.513 32.5534 33.4102 32.9023 33.2383 33.2461C33.069 33.5898 32.8359 33.9036 32.5391 34.1875C32.2422 34.4687 31.8802 34.6927 31.4531 34.8594C31.0286 35.026 30.5417 35.1094 29.9922 35.1094C29.2682 35.1094 28.6198 34.9505 28.0469 34.6328C27.4766 34.3125 27.026 33.8464 26.6953 33.2344C26.3646 32.6224 26.1992 31.8776 26.1992 31C26.1992 30.1198 26.3672 29.3737 26.7031 28.7617C27.0391 28.1497 27.4935 27.6849 28.0664 27.3672C28.6393 27.0495 29.2813 26.8906 29.9922 26.8906C30.4766 26.8906 30.9245 26.9583 31.3359 27.0938C31.7474 27.2266 32.1094 27.4219 32.4219 27.6797C32.7344 27.9349 32.9883 28.2487 33.1836 28.6211C33.3789 28.9935 33.5 29.4193 33.5469 29.8984ZM34.3916 28.5703V27H41.1533V28.5703H38.7275V35H36.8213V28.5703H34.3916Z" fill="#00A9CB"/>
</svg>
