<svg width="29" height="27" viewBox="0 0 29 27" fill="none" xmlns="http://www.w3.org/2000/svg">
<path d="M26.7627 10.8633H19.5127C19.3881 10.8633 19.2862 10.9582 19.2862 11.0742V12.3398C19.2862 12.4559 19.3881 12.5508 19.5127 12.5508H26.7627C26.8874 12.5508 26.9893 12.4559 26.9893 12.3398V11.0742C26.9893 10.9582 26.8874 10.8633 26.7627 10.8633ZM22.9678 14.4492H19.5127C19.3881 14.4492 19.2862 14.5441 19.2862 14.6602V15.9258C19.2862 16.0418 19.3881 16.1367 19.5127 16.1367H22.9678C23.0924 16.1367 23.1944 16.0418 23.1944 15.9258V14.6602C23.1944 14.5441 23.0924 14.4492 22.9678 14.4492ZM13.5173 8.50342H12.2911C12.1155 8.50342 11.9739 8.63525 11.9739 8.79873V15.3378C11.9739 15.4327 12.022 15.5197 12.1042 15.5751L16.321 18.4386C16.4626 18.5335 16.6609 18.5071 16.7628 18.3753L17.4907 17.4498V17.4472C17.5926 17.3153 17.5615 17.1308 17.4199 17.0358L13.8317 14.6206V8.79873C13.8345 8.63525 13.6901 8.50342 13.5173 8.50342Z" fill="#00A9CB"/>
<path d="M22.7922 17.769H21.1553C20.9967 17.769 20.8466 17.8454 20.7616 17.972C20.402 18.502 19.9828 18.9924 19.5014 19.4406C18.6716 20.2132 17.7059 20.8197 16.6325 21.2415C15.5196 21.6792 14.3386 21.9007 13.1208 21.9007C11.9002 21.9007 10.7193 21.6792 9.6091 21.2415C8.53576 20.8197 7.57004 20.2132 6.74025 19.4406C5.91047 18.6681 5.2591 17.769 4.80598 16.7697C4.33586 15.7361 4.09797 14.6365 4.09797 13.5001C4.09797 12.3637 4.33586 11.2668 4.80598 10.2306C5.2591 9.23127 5.91047 8.33215 6.74025 7.55959C7.57004 6.78704 8.53576 6.18059 9.6091 5.75871C10.7193 5.32102 11.903 5.09953 13.1208 5.09953C14.3414 5.09953 15.5224 5.32102 16.6325 5.75871C17.7059 6.18059 18.6716 6.78704 19.5014 7.55959C19.9828 8.00784 20.402 8.49827 20.7616 9.02825C20.8466 9.15481 20.9967 9.23127 21.1553 9.23127H22.7922C22.9876 9.23127 23.1122 9.04143 23.0244 8.88059C21.1779 5.46077 17.434 3.23801 13.2539 3.19319C7.13391 3.122 2.05041 7.78635 2.03908 13.479C2.02775 19.1823 6.9923 23.8097 13.118 23.8097C17.3519 23.8097 21.1581 21.579 23.0244 18.1197C23.1122 17.9588 22.9848 17.769 22.7922 17.769Z" fill="#00A9CB"/>
</svg>
