<svg width="24" height="24" viewBox="0 0 24 24" fill="none" xmlns="http://www.w3.org/2000/svg">
<g clip-path="url(#clip0_96_870)">
<path d="M12 0C18.6277 0 24 5.373 24 12C24 18.6278 18.6277 24 12 24C5.37217 24 0 18.6277 0 12C0 5.373 5.37225 0 12 0Z" fill="#3B5998"/>
<path d="M13.4611 8.26119H15.0076V5.97668H13.1896V5.98492C10.9868 6.06294 10.5354 7.30117 10.4956 8.60168H10.4911V9.74245H8.99109V11.9797H10.4911V17.9766H12.7516V11.9797H14.6033L14.961 9.74245H12.7523V9.05323C12.7523 8.61371 13.0448 8.26119 13.4611 8.26119Z" fill="white"/>
</g>
<defs>
<clipPath id="clip0_96_870">
<rect width="24" height="24" fill="white"/>
</clipPath>
</defs>
</svg>
