<svg width="24" height="24" viewBox="0 0 24 24" fill="none" xmlns="http://www.w3.org/2000/svg">
<g clip-path="url(#clip0_96_856)">
<path d="M6.08577 23.9151C4.65848 23.8502 3.88314 23.6127 3.36743 23.4115C2.6841 23.1455 2.19693 22.8288 1.68407 22.3166C1.17122 21.8045 0.853806 21.3173 0.589176 20.634C0.388029 20.1183 0.150504 19.3429 0.0855946 17.9157C0.0142658 16.3728 0 15.9099 0 12.0011C0 8.09225 0.0156923 7.63004 0.0848813 6.08577C0.14979 4.65848 0.388742 3.88457 0.588463 3.36743C0.854519 2.6841 1.17193 2.19693 1.68336 1.68336C2.1955 1.17122 2.68268 0.853092 3.36672 0.588463C3.88243 0.387315 4.65777 0.14979 6.08506 0.0848813C7.62861 0.0142658 8.09225 0 11.9996 0C15.9085 0 16.3707 0.0156923 17.9149 0.0848813C19.3422 0.14979 20.1161 0.388742 20.6333 0.588463C21.3166 0.853092 21.8038 1.17122 22.3166 1.68336C22.8295 2.1955 23.1455 2.68339 23.4115 3.36672C23.6127 3.88243 23.8502 4.65777 23.9151 6.08506C23.9857 7.62933 24 8.09154 24 12.0004C24 15.9077 23.9857 16.3714 23.9151 17.9157C23.8502 19.3429 23.6113 20.1183 23.4115 20.634C23.1455 21.3173 22.8288 21.8045 22.3166 22.3166C21.8045 22.8288 21.3166 23.1455 20.6333 23.4115C20.1176 23.6127 19.3422 23.8502 17.9149 23.9151C16.3721 23.9857 15.9085 24 11.9996 24C8.09225 24 7.62862 23.9864 6.08577 23.9151Z" fill="url(#paint0_radial_96_856)"/>
<path d="M6.08577 23.9151C4.65848 23.8502 3.88314 23.6127 3.36743 23.4115C2.6841 23.1455 2.19693 22.8288 1.68407 22.3166C1.17122 21.8045 0.853806 21.3173 0.589176 20.634C0.388029 20.1183 0.150504 19.3429 0.0855946 17.9157C0.0142658 16.3728 0 15.9099 0 12.0011C0 8.09225 0.0156923 7.63004 0.0848813 6.08577C0.14979 4.65848 0.388742 3.88457 0.588463 3.36743C0.854519 2.6841 1.17193 2.19693 1.68336 1.68336C2.1955 1.17122 2.68268 0.853092 3.36672 0.588463C3.88243 0.387315 4.65777 0.14979 6.08506 0.0848813C7.62861 0.0142658 8.09225 0 11.9996 0C15.9085 0 16.3707 0.0156923 17.9149 0.0848813C19.3422 0.14979 20.1161 0.388742 20.6333 0.588463C21.3166 0.853092 21.8038 1.17122 22.3166 1.68336C22.8295 2.1955 23.1455 2.68339 23.4115 3.36672C23.6127 3.88243 23.8502 4.65777 23.9151 6.08506C23.9857 7.62933 24 8.09154 24 12.0004C24 15.9077 23.9857 16.3714 23.9151 17.9157C23.8502 19.3429 23.6113 20.1183 23.4115 20.634C23.1455 21.3173 22.8288 21.8045 22.3166 22.3166C21.8045 22.8288 21.3166 23.1455 20.6333 23.4115C20.1176 23.6127 19.3422 23.8502 17.9149 23.9151C16.3721 23.9857 15.9085 24 11.9996 24C8.09225 24 7.62862 23.9864 6.08577 23.9151Z" fill="url(#paint1_radial_96_856)"/>
<path d="M9.05343 12.0511C9.05343 10.4098 10.3836 9.07884 12.025 9.07884C13.6663 9.07884 14.9973 10.4098 14.9973 12.0511C14.9973 13.6925 13.6663 15.0234 12.025 15.0234C10.3836 15.0234 9.05343 13.6925 9.05343 12.0511ZM7.44668 12.0511C7.44668 14.5797 9.49638 16.6294 12.025 16.6294C14.5536 16.6294 16.6033 14.5797 16.6033 12.0511C16.6033 9.5225 14.5536 7.4728 12.025 7.4728C9.49638 7.4728 7.44675 9.52236 7.44675 12.0511H7.44668ZM15.7147 7.29127C15.7146 7.50288 15.7773 7.70977 15.8948 7.88576C16.0123 8.06176 16.1793 8.19896 16.3748 8.28002C16.5702 8.36108 16.7854 8.38235 16.9929 8.34115C17.2005 8.29995 17.3912 8.19813 17.5409 8.04855C17.6906 7.89898 17.7925 7.70838 17.8339 7.50085C17.8753 7.29332 17.8542 7.07818 17.7733 6.88265C17.6924 6.68711 17.5553 6.51995 17.3794 6.40232C17.2035 6.28468 16.9967 6.22185 16.785 6.22176H16.7846C16.501 6.2219 16.229 6.3346 16.0284 6.53513C15.8277 6.73566 15.7149 7.00762 15.7147 7.29127ZM8.42288 19.3087C7.5536 19.2691 7.08112 19.1243 6.76713 19.002C6.35085 18.8399 6.05384 18.6469 5.74156 18.335C5.42928 18.0232 5.23598 17.7265 5.07464 17.3102C4.95224 16.9963 4.80744 16.5237 4.76792 15.6544C4.7247 14.7146 4.71607 14.4323 4.71607 12.0513C4.71607 9.67023 4.72541 9.38869 4.76792 8.44808C4.80751 7.57879 4.95338 7.1071 5.07464 6.79232C5.2367 6.37605 5.42971 6.07903 5.74156 5.76676C6.05341 5.45448 6.35014 5.26118 6.76713 5.09983C7.08097 4.97743 7.5536 4.83264 8.42288 4.79312C9.36271 4.74989 9.64503 4.74126 12.025 4.74126C14.4049 4.74126 14.6875 4.75046 15.6282 4.79326C16.4974 4.83285 16.9691 4.97872 17.2839 5.09998C17.7002 5.26132 17.9972 5.45505 18.3095 5.7669C18.6218 6.07875 18.8143 6.37619 18.9764 6.79247C19.0988 7.10631 19.2436 7.57894 19.2831 8.44822C19.3263 9.38883 19.335 9.67037 19.335 12.0514C19.335 14.4324 19.3263 14.714 19.2831 15.6546C19.2435 16.5239 19.098 16.9963 18.9764 17.3103C18.8143 17.7266 18.6213 18.0236 18.3095 18.3352C17.9976 18.6467 17.7002 18.84 17.2839 19.0021C16.9701 19.1245 16.4974 19.2693 15.6282 19.3088C14.6883 19.352 14.406 19.3607 12.025 19.3607C9.64396 19.3607 9.36243 19.352 8.42288 19.3088V19.3087ZM8.34906 3.18901C7.39988 3.23223 6.75129 3.38273 6.18487 3.60314C5.59862 3.83075 5.10167 4.13611 4.60544 4.63156C4.1092 5.12701 3.80463 5.62403 3.57702 6.21099C3.35661 6.77777 3.20611 7.42601 3.16288 8.37518C3.11894 9.32585 3.10889 9.62978 3.10889 12.0511C3.10889 14.4724 3.11894 14.7764 3.16288 15.727C3.20611 16.6763 3.35661 17.3244 3.57702 17.8912C3.80463 18.4775 4.10927 18.9754 4.60544 19.4707C5.1016 19.9659 5.59791 20.2708 6.18487 20.4991C6.75236 20.7195 7.39988 20.87 8.34906 20.9132C9.30023 20.9564 9.60366 20.9672 12.025 20.9672C14.4463 20.9672 14.7502 20.9572 15.7009 20.9132C16.6502 20.87 17.2983 20.7195 17.8651 20.4991C18.4514 20.2708 18.9483 19.9661 19.4445 19.4707C19.9408 18.9752 20.2447 18.4775 20.473 17.8912C20.6934 17.3244 20.8446 16.6762 20.8871 15.727C20.9303 14.7757 20.9404 14.4724 20.9404 12.0511C20.9404 9.62978 20.9303 9.32585 20.8871 8.37518C20.8439 7.42594 20.6934 6.77741 20.473 6.21099C20.2447 5.62474 19.94 5.12779 19.4445 4.63156C18.9491 4.13532 18.4514 3.83075 17.8658 3.60314C17.2983 3.38273 16.6501 3.23152 15.7016 3.18901C14.7508 3.14557 14.447 3.13501 12.0261 3.13501C9.60509 3.13501 9.30058 3.14507 8.34941 3.18901" fill="white"/>
</g>
<defs>
<radialGradient id="paint0_radial_96_856" cx="0" cy="0" r="1" gradientUnits="userSpaceOnUse" gradientTransform="translate(1.55326 23.4742) scale(30.4711)">
<stop offset="0.09" stop-color="#FA8F21"/>
<stop offset="0.78" stop-color="#D82D7E"/>
</radialGradient>
<radialGradient id="paint1_radial_96_856" cx="0" cy="0" r="1" gradientUnits="userSpaceOnUse" gradientTransform="translate(16.624 22.7036) scale(26.8148)">
<stop offset="0.64" stop-color="#8C3AAA" stop-opacity="0"/>
<stop offset="1" stop-color="#8C3AAA"/>
</radialGradient>
<clipPath id="clip0_96_856">
<rect width="24" height="24" fill="white"/>
</clipPath>
</defs>
</svg>
