<svg width="32" height="32" viewBox="0 0 32 32" fill="none" xmlns="http://www.w3.org/2000/svg">
<path fill-rule="evenodd" clip-rule="evenodd" d="M23.4122 19.088L24.681 21.0798C24.9555 21.5114 24.9727 22.0583 24.7259 22.5062C24.4791 22.9541 24.0076 23.2317 23.4962 23.2303H8.06992C7.55933 23.23 7.0894 22.9517 6.84375 22.5041C6.5981 22.0565 6.61573 21.5107 6.88974 21.0798L8.14455 19.102C8.27 18.9042 8.34378 18.678 8.35913 18.4443L8.8256 11.5685C9.07552 7.73484 12.3696 4.8197 16.2052 5.03785C19.7659 5.30746 22.5722 8.17975 22.7591 11.7457L23.1976 18.4303C23.213 18.664 23.2867 18.8902 23.4122 19.088ZM18.1996 25.1006C18.0355 24.8126 17.7308 24.6333 17.3994 24.6297H14.1714C13.8399 24.6333 13.5353 24.8126 13.3711 25.1006C13.207 25.3886 13.2079 25.742 13.3737 26.0291C13.8768 26.8833 14.7941 27.4076 15.7854 27.4076C16.7766 27.4076 17.694 26.8833 18.197 26.0291C18.3628 25.742 18.3638 25.3886 18.1996 25.1006Z" fill="white"/>
<circle cx="21" cy="6" r="4" fill="#EA2222"/>
</svg>
