<svg width="24" height="24" viewBox="0 0 24 24" fill="none" xmlns="http://www.w3.org/2000/svg">
<path d="M21.0685 3.85352H2.93155C1.31516 3.85352 0 5.16868 0 6.78506V17.2152C0 18.8316 1.31516 20.1468 2.93155 20.1468H21.0685C22.6848 20.1468 24 18.8316 24 17.2152V6.78538C24.0003 5.16868 22.6852 3.85352 21.0685 3.85352ZM19.636 5.76602L12 10.6856L4.36401 5.76602H19.636ZM21.0685 18.2346H2.93155C2.36959 18.2346 1.9125 17.7772 1.9125 17.2155V6.83957L11.41 12.9468C11.4227 12.9548 11.4364 12.9602 11.4495 12.9675C11.4632 12.9752 11.4772 12.9825 11.4913 12.9895C11.5649 13.0275 11.6408 13.0581 11.7182 13.0782C11.7262 13.0804 11.7342 13.0813 11.7421 13.0833C11.8272 13.1033 11.9133 13.1158 11.9994 13.1158C11.9997 13.1158 12 13.1158 12 13.1158C12.0006 13.1158 12.001 13.1158 12.0013 13.1158C12.0873 13.1158 12.1734 13.1037 12.2585 13.0833C12.2665 13.0813 12.2744 13.0804 12.2824 13.0782C12.3599 13.0581 12.4354 13.0275 12.5094 12.9895C12.5234 12.9825 12.5374 12.9752 12.5511 12.9675C12.5642 12.9602 12.5779 12.9548 12.5906 12.9468L22.0881 6.83957V17.2152C22.0878 17.7772 21.6304 18.2346 21.0685 18.2346Z" fill="black"/>
</svg>
