<svg width="29" height="25" viewBox="0 0 29 25" fill="none" xmlns="http://www.w3.org/2000/svg">
<path d="M14.5 23.6979C13.6542 23.6979 12.7962 23.4167 12.1558 22.8646L10.0896 21.1042C9.58205 20.6667 8.88126 20.4271 8.16835 20.4271H7.25C4.74875 20.4271 2.71875 18.6875 2.71875 16.5521V5.18747C2.71875 3.05205 4.74875 1.3125 7.25 1.3125H21.75C24.2513 1.3125 26.2812 3.05205 26.2812 5.18747V16.5521C26.2812 18.6875 24.2513 20.4271 21.75 20.4271H20.8317C20.1187 20.4271 19.4179 20.6771 18.9104 21.1042L16.8442 22.8646C16.2038 23.4167 15.3458 23.6979 14.5 23.6979ZM7.25 2.86457C5.75167 2.86457 4.53125 3.90621 4.53125 5.17704V16.5417C4.53125 17.8229 5.75167 18.8541 7.25 18.8541H8.16835C9.3646 18.8541 10.5246 19.2708 11.3704 19.9896L13.4367 21.75C14.0287 22.25 14.9834 22.25 15.5754 21.75L17.6416 19.9896C18.4875 19.2708 19.6475 18.8541 20.8438 18.8541H21.75C23.2483 18.8541 24.4688 17.8125 24.4688 16.5417V5.17704C24.4688 3.89579 23.2483 2.86457 21.75 2.86457H7.25Z" fill="#292D32"/>
<path d="M14.4999 11.198C12.4457 11.198 10.7782 9.76049 10.7782 7.98966C10.7782 6.21883 12.4457 4.78137 14.4999 4.78137C16.5541 4.78137 18.2216 6.21883 18.2216 7.98966C18.2216 9.76049 16.5541 11.198 14.4999 11.198ZM14.4999 6.34387C13.4486 6.34387 12.5907 7.08341 12.5907 7.98966C12.5907 8.89591 13.4486 9.63551 14.4999 9.63551C15.5511 9.63551 16.4091 8.89591 16.4091 7.98966C16.4091 7.08341 15.5511 6.34387 14.4999 6.34387Z" fill="#292D32"/>
<path d="M19.3333 17.0939C18.8379 17.0939 18.427 16.7397 18.427 16.3126C18.427 14.8751 16.6629 13.6981 14.5 13.6981C12.337 13.6981 10.5729 14.8751 10.5729 16.3126C10.5729 16.7397 10.162 17.0939 9.66663 17.0939C9.17121 17.0939 8.76038 16.7397 8.76038 16.3126C8.76038 14.0106 11.3341 12.1356 14.5 12.1356C17.6658 12.1356 20.2395 14.0106 20.2395 16.3126C20.2395 16.7397 19.8287 17.0939 19.3333 17.0939Z" fill="#292D32"/>
</svg>
