<svg width="22" height="22" viewBox="0 0 22 22" fill="none" xmlns="http://www.w3.org/2000/svg">
<path d="M7.25 16.2501C7.05109 16.2501 6.86032 16.1711 6.71967 16.0304C6.57902 15.8898 6.5 15.699 6.5 15.5001V6.50009C6.49999 6.37223 6.53266 6.24649 6.59491 6.13482C6.65717 6.02314 6.74694 5.92924 6.8557 5.86202C6.96446 5.7948 7.08859 5.7565 7.21632 5.75076C7.34405 5.74502 7.47112 5.77202 7.58548 5.82921L16.5855 10.3292C16.7101 10.3915 16.8149 10.4872 16.8881 10.6057C16.9614 10.7242 17.0002 10.8608 17.0002 11.0001C17.0002 11.1394 16.9614 11.2759 16.8881 11.3944C16.8149 11.5129 16.7101 11.6087 16.5855 11.671L7.58548 16.171C7.4813 16.223 7.36645 16.2501 7.25 16.2501ZM8 7.71351V14.2867L14.5732 11.0001L8 7.71351Z" fill="#808080"/>
<path d="M11 2C12.78 2 14.5201 2.52784 16.0001 3.51677C17.4802 4.50571 18.6337 5.91131 19.3149 7.55585C19.9961 9.20038 20.1743 11.01 19.8271 12.7558C19.4798 14.5016 18.6226 16.1053 17.364 17.364C16.1053 18.6226 14.5016 19.4798 12.7558 19.8271C11.01 20.1743 9.20039 19.9961 7.55585 19.3149C5.91132 18.6337 4.50571 17.4802 3.51678 16.0001C2.52785 14.5201 2 12.78 2 11C2 8.61305 2.94822 6.32387 4.63604 4.63604C6.32387 2.94821 8.61306 2 11 2ZM11 0.5C8.9233 0.5 6.89323 1.11581 5.16652 2.26957C3.4398 3.42332 2.09399 5.0632 1.29927 6.98182C0.504549 8.90045 0.296614 11.0116 0.701759 13.0484C1.1069 15.0852 2.10693 16.9562 3.57538 18.4246C5.04383 19.8931 6.91476 20.8931 8.95156 21.2982C10.9884 21.7034 13.0996 21.4955 15.0182 20.7007C16.9368 19.906 18.5767 18.5602 19.7304 16.8335C20.8842 15.1068 21.5 13.0767 21.5 11C21.5 8.21523 20.3938 5.54451 18.4246 3.57538C16.4555 1.60625 13.7848 0.5 11 0.5Z" fill="#808080"/>
</svg>
