<svg width="24" height="24" viewBox="0 0 24 24" fill="none" xmlns="http://www.w3.org/2000/svg">
<g clip-path="url(#clip0_96_865)">
<path d="M12 24.0001C18.6275 24.0001 24.0001 18.6275 24.0001 12C24.0001 5.37259 18.6275 0 12 0C5.37259 0 0 5.37259 0 12C0 18.6275 5.37259 24.0001 12 24.0001Z" fill="#D42428"/>
<path d="M20.4849 3.51343C25.1712 8.20014 25.1716 15.7984 20.4849 20.4851C15.7986 25.1714 8.19989 25.1716 3.51318 20.4851L20.4849 3.51343Z" fill="#CC202D"/>
<path d="M23.7588 14.4035L17.8196 8.46448L10.8149 9.26201L6.57788 15.8215L14.4951 23.7386C19.1499 22.7538 22.8095 19.0718 23.7588 14.4035Z" fill="#BA202E"/>
<path d="M18.2797 9.68437C18.2797 8.6784 17.4648 7.86304 16.4594 7.86304H7.91877C6.91356 7.86304 6.09875 8.6786 6.09875 9.68437V14.5683C6.09875 15.5743 6.91371 16.3896 7.91877 16.3896H16.4592C17.4648 16.3896 18.2796 15.5741 18.2796 14.5683V9.68437H18.2797ZM10.9708 14.1867V9.59949L14.4495 11.8932L10.9708 14.1867Z" fill="white"/>
</g>
<defs>
<clipPath id="clip0_96_865">
<rect width="24" height="24" fill="white"/>
</clipPath>
</defs>
</svg>
